<svg xmlns="http://www.w3.org/2000/svg" viewBox="0 0 10.99 7"><path class="search-open__eye-out" d="M3.57,7A4.14,4.14,0,0,1,.88,6.24,2.73,2.73,0,0,1,.54,2.6a.54.54,0,0,1,.12-.34,3.94,3.94,0,0,1,1.4-1.17A5.64,5.64,0,0,1,3.54.53,7.69,7.69,0,0,1,6.79,0,6.82,6.82,0,0,1,8.63.32c1.63.59,3,2.35,2,4.21C9.19,6.75,5.91,7.11,3.57,7Zm.36-1.76a7.49,7.49,0,0,0,3.3-.58A3.87,3.87,0,0,0,9,3.46c.28-.46-.63-1-1-1.11a7.52,7.52,0,0,0-4.23.07,7.69,7.69,0,0,0-1.63.37c-.58.47-1,1.55-.33,2.11A4.5,4.5,0,0,0,3.93,5.22Z"></path><path class="search-open__eye-in" d="M4.73,5.69a1.78,1.78,0,0,1-.66-.36,2.1,2.1,0,0,1-.8-.82A2.82,2.82,0,0,1,4,1.26,1.7,1.7,0,0,1,5.1.84c1.07-.24,2,.83,2,1.93a4.6,4.6,0,0,1-.43,2A1.69,1.69,0,0,1,4.73,5.69Z"></path></svg>